<svg height="512" fill="#ffffff00" viewBox="0 0 74 74" width="512" xmlns="http://www.w3.org/2000/svg"><path d="M60.375 9.312h-46.75a1 1 0 010-2h46.75a1 1 0 110 2zM44.19 66.69h-2.97a1 1 0 010-2h2.97a1 1 0 010 2zm-19.87 0H13.63a1 1 0 110-2h10.69a1 1 0 010 2zm9.9 0h-2.9a1 1 0 110-2h2.9a1 1 0 010 2zm26.16 0h-9.19a1 1 0 010-2h9.19a1 1 0 010 2zM8.312 61.375a1 1 0 01-1-1v-46.75a1 1 0 112 0v46.75a1 1 0 01-1 1zm57.376 0a1 1 0 01-1-1v-46.75a1 1 0 012 0v46.75a1 1 0 01-1 1z"/><path d="M71 14.625H60.375a1 1 0 01-1-1V3a1 1 0 011-1H71a1 1 0 011 1v10.625a1 1 0 01-1 1zm-9.625-2H70V4h-8.625zm-47.75 2H3a1 1 0 01-1-1V3a1 1 0 011-1h10.625a1 1 0 011 1v10.625a1 1 0 01-1 1zm-9.625-2h8.625V4H4zM71 72H60.375a1 1 0 01-1-1V60.375a1 1 0 011-1H71a1 1 0 011 1V71a1 1 0 01-1 1zm-9.625-2H70v-8.625h-8.625zm-47.75 2H3a1 1 0 01-1-1V60.375a1 1 0 011-1h10.625a1 1 0 011 1V71a1 1 0 01-1 1zM4 70h8.625v-8.625H4zm20.705-17.637a1 1 0 01-.739-1.673l20.491-22.54a1 1 0 011.364-.108l20.491 16.393A1 1 0 0165.063 46L45.305 30.19l-19.86 21.846a1 1 0 01-.74.327z"/><path d="M8.312 43.634a1 1 0 01-.691-1.723l12.3-11.762a1 1 0 011.376-.005L33.536 41.67a1 1 0 11-1.371 1.456L20.612 32.25 9 43.356a1 1 0 01-.688.278zm21.454-13.395a5.088 5.088 0 115.087-5.088 5.093 5.093 0 01-5.087 5.088zm0-8.175a3.088 3.088 0 103.087 3.087 3.09 3.09 0 00-3.087-3.087z"/></svg>