<svg id="Icons" height="512" fill="#ffffff00" viewBox="0 0 74 74" width="512" xmlns="http://www.w3.org/2000/svg"><path d="m60.375 9.312h-46.75a1 1 0 0 1 0-2h46.75a1 1 0 1 1 0 2z"/><path d="m44.19 66.69h-2.97a1 1 0 0 1 0-2h2.97a1 1 0 0 1 0 2z"/><path d="m24.32 66.69h-10.69a1 1 0 1 1 0-2h10.69a1 1 0 0 1 0 2z"/><path d="m34.22 66.69h-2.9a1 1 0 1 1 0-2h2.9a1 1 0 0 1 0 2z"/><path d="m60.38 66.69h-9.19a1 1 0 0 1 0-2h9.19a1 1 0 0 1 0 2z"/><path d="m8.312 61.375a1 1 0 0 1 -1-1v-46.75a1 1 0 1 1 2 0v46.75a1 1 0 0 1 -1 1z"/><path d="m65.688 61.375a1 1 0 0 1 -1-1v-46.75a1 1 0 0 1 2 0v46.75a1 1 0 0 1 -1 1z"/><path d="m71 14.625h-10.625a1 1 0 0 1 -1-1v-10.625a1 1 0 0 1 1-1h10.625a1 1 0 0 1 1 1v10.625a1 1 0 0 1 -1 1zm-9.625-2h8.625v-8.625h-8.625z"/><path d="m13.625 14.625h-10.625a1 1 0 0 1 -1-1v-10.625a1 1 0 0 1 1-1h10.625a1 1 0 0 1 1 1v10.625a1 1 0 0 1 -1 1zm-9.625-2h8.625v-8.625h-8.625z"/><path d="m71 72h-10.625a1 1 0 0 1 -1-1v-10.625a1 1 0 0 1 1-1h10.625a1 1 0 0 1 1 1v10.625a1 1 0 0 1 -1 1zm-9.625-2h8.625v-8.625h-8.625z"/><path d="m13.625 72h-10.625a1 1 0 0 1 -1-1v-10.625a1 1 0 0 1 1-1h10.625a1 1 0 0 1 1 1v10.625a1 1 0 0 1 -1 1zm-9.625-2h8.625v-8.625h-8.625z"/><path d="m24.705 52.363a1 1 0 0 1 -.739-1.673l20.491-22.54a1 1 0 0 1 1.364-.108l20.491 16.393a1 1 0 0 1 -1.249 1.565l-19.758-15.81-19.86 21.846a1 1 0 0 1 -.74.327z"/><path d="m8.312 43.634a1 1 0 0 1 -.691-1.723l12.3-11.762a1 1 0 0 1 1.376-.005l12.239 11.526a1 1 0 1 1 -1.371 1.456l-11.553-10.876-11.612 11.106a1 1 0 0 1 -.688.278z"/><path d="m29.766 30.239a5.088 5.088 0 1 1 5.087-5.088 5.093 5.093 0 0 1 -5.087 5.088zm0-8.175a3.088 3.088 0 1 0 3.087 3.087 3.09 3.09 0 0 0 -3.087-3.087z"/></svg>