<?xml version="1.0" encoding="iso-8859-1"?>
<!-- Generator: Adobe Illustrator 19.0.0, SVG Export Plug-In . SVG Version: 6.00 Build 0)  -->
<svg version="1.1" fill="#ff6347" id="Capa_1" xmlns="http://www.w3.org/2000/svg" xmlns:xlink="http://www.w3.org/1999/xlink" x="0px" y="0px"
	 viewBox="0 0 512 512" style="enable-background:new 0 0 512 512;" xml:space="preserve">
<g>
	<g>
		<g>
			<polygon points="32,32 192,32 192,0 0,0 0,192 32,192 			"/>
			<polygon points="320,0 320,32 480,32 480,192 512,192 512,0 			"/>
			<polygon points="32,320 0,320 0,512 192,512 192,480 32,480 			"/>
			<polygon points="480,480 320,480 320,512 512,512 512,320 480,320 			"/>
			<rect x="304" y="240" width="32" height="32"/>
			<rect x="176" y="240" width="32" height="32"/>
			<rect x="240" y="240" width="32" height="32"/>
		</g>
	</g>
</g>
<g>
</g>
<g>
</g>
<g>
</g>
<g>
</g>
<g>
</g>
<g>
</g>
<g>
</g>
<g>
</g>
<g>
</g>
<g>
</g>
<g>
</g>
<g>
</g>
<g>
</g>
<g>
</g>
<g>
</g>
</svg>
