<?xml version="1.0" encoding="iso-8859-1"?>
<!-- Generator: Adobe Illustrator 19.0.0, SVG Export Plug-In . SVG Version: 6.00 Build 0)  -->
<svg version="1.1" fill="#ff6347" id="Capa_1" xmlns="http://www.w3.org/2000/svg" xmlns:xlink="http://www.w3.org/1999/xlink" x="0px" y="0px"
	 viewBox="0 0 512 512" style="enable-background:new 0 0 512 512;" xml:space="preserve">
<g>
	<g>
		<g>
			<polygon points="288,512 320,512 320,320 512,320 512,288 288,288 			"/>
			<polygon points="0,320 192,320 192,512 224,512 224,288 0,288 			"/>
			<polygon points="320,192 320,0 288,0 288,224 512,224 512,192 			"/>
			<polygon points="192,192 0,192 0,224 224,224 224,0 192,0 			"/>
			<rect x="128" y="128" width="32" height="32"/>
			<rect x="352" y="128" width="32" height="32"/>
			<rect x="128" y="352" width="32" height="32"/>
			<rect x="352" y="352" width="32" height="32"/>
		</g>
	</g>
</g>
<g>
</g>
<g>
</g>
<g>
</g>
<g>
</g>
<g>
</g>
<g>
</g>
<g>
</g>
<g>
</g>
<g>
</g>
<g>
</g>
<g>
</g>
<g>
</g>
<g>
</g>
<g>
</g>
<g>
</g>
</svg>
